<svg width="195" height="43" viewBox="0 0 195 43" fill="none" xmlns="http://www.w3.org/2000/svg">
<path d="M100.48 4.90762C101.792 4.90762 102.632 5.0387 103.573 5.93972C104.243 6.64005 104.454 7.49856 104.467 8.44302C104.469 8.52737 104.469 8.52737 104.47 8.61342C104.472 8.77254 104.475 8.93165 104.477 9.09078C104.478 9.19478 104.479 9.29879 104.481 9.40279C104.513 11.7289 104.516 14.0553 104.524 16.3815C104.526 16.8372 104.528 17.2928 104.529 17.7484C104.529 17.7809 104.53 17.8134 104.53 17.8469C104.53 18.0102 104.531 18.1734 104.532 18.3366C104.537 19.6715 104.542 21.0064 104.547 22.3413C104.554 22.3113 104.562 22.2813 104.57 22.2503C104.605 22.1115 104.641 21.9728 104.676 21.8341C104.694 21.7633 104.694 21.7633 104.713 21.6911C105.096 20.2049 105.832 18.7327 106.82 17.5564C106.885 17.4791 106.949 17.4011 107.012 17.3231C107.53 16.6974 108.104 16.1004 108.753 15.6109C108.778 15.5915 108.804 15.5722 108.829 15.5523C110.947 13.9244 113.482 13.066 116.148 13.0764C116.245 13.0764 116.341 13.0764 116.438 13.0763C116.699 13.0763 116.959 13.0768 117.219 13.0775C117.492 13.0781 117.765 13.0781 118.038 13.0782C118.554 13.0785 119.07 13.0793 119.585 13.0802C120.173 13.0813 120.761 13.0818 121.348 13.0823C122.556 13.0832 123.764 13.0849 124.972 13.087C124.972 13.1839 124.973 13.2808 124.973 13.3776C124.973 13.4316 124.974 13.4856 124.974 13.5411C124.971 13.7283 124.951 13.9054 124.916 14.0889C124.91 14.1222 124.904 14.1555 124.898 14.1897C124.721 15.0807 124.294 15.9049 123.56 16.4593C122.955 16.8593 122.354 17.0348 121.629 17.0318C121.573 17.0321 121.518 17.0324 121.461 17.0328C121.31 17.0335 121.159 17.0337 121.008 17.0336C120.849 17.0337 120.69 17.0347 120.53 17.0356C120.16 17.0375 119.789 17.0383 119.419 17.0391C118.949 17.0402 118.479 17.0418 118.009 17.0441C117.79 17.0452 117.572 17.0455 117.354 17.0457C116.548 17.048 115.729 17.0538 114.943 17.2555C114.903 17.2656 114.863 17.2757 114.821 17.2861C112.871 17.7925 111.137 19.0136 110.09 20.7482C109.981 20.9336 109.88 21.1224 109.782 21.3131C109.765 21.3445 109.749 21.3759 109.732 21.4083C109.352 22.143 109.119 22.928 108.987 23.7435C108.978 23.7965 108.97 23.8494 108.961 23.904C108.86 24.755 108.878 25.7155 109.08 26.5478C109.09 26.5873 109.1 26.6268 109.109 26.6674C109.249 27.2286 109.433 27.7581 109.688 28.2772C109.702 28.3059 109.716 28.3347 109.73 28.3643C110.099 29.1233 110.595 29.7792 111.184 30.3805C111.232 30.432 111.232 30.432 111.281 30.4845C112.434 31.6984 114.311 32.5667 115.984 32.6286C116.134 32.6309 116.284 32.6317 116.434 32.632C116.491 32.6324 116.548 32.6327 116.606 32.633C116.729 32.6336 116.852 32.6342 116.975 32.6347C117.17 32.6354 117.365 32.6365 117.561 32.6377C118.115 32.641 118.67 32.6438 119.225 32.6462C119.532 32.6476 119.839 32.6492 120.146 32.6512C120.308 32.6522 120.47 32.6531 120.632 32.6536C122.747 32.6597 122.747 32.6597 123.663 33.325C123.693 33.346 123.722 33.367 123.753 33.3886C124.488 33.9606 124.803 34.8987 124.953 35.7805C124.976 35.971 124.974 36.1612 124.973 36.3527C124.973 36.3852 124.973 36.4177 124.973 36.4512C124.972 36.5309 124.972 36.6106 124.972 36.6902C123.698 36.6935 122.425 36.696 121.152 36.6975C120.56 36.6982 119.969 36.6992 119.378 36.7008C118.862 36.7022 118.346 36.7031 117.83 36.7034C117.557 36.7036 117.285 36.704 117.012 36.7051C116.754 36.706 116.497 36.7063 116.239 36.7061C116.145 36.7061 116.052 36.7064 115.958 36.707C115.098 36.7117 114.242 36.6369 113.407 36.4244C113.359 36.4124 113.311 36.4003 113.261 36.3879C111.605 35.962 110.094 35.2288 108.753 34.1663C108.705 34.1283 108.656 34.0903 108.606 34.0511C107.878 33.4588 107.199 32.778 106.65 32.0163C106.611 31.9649 106.573 31.9135 106.534 31.8622C105.553 30.5507 104.913 29.0238 104.547 27.4359C104.531 30.4898 104.516 33.5438 104.5 36.6902C103.174 36.6902 101.847 36.6902 100.48 36.6902C100.48 26.202 100.48 15.7137 100.48 4.90762Z" fill="#0FBFB4"/>
<path d="M174.414 13.0681C174.61 13.0685 174.807 13.0682 175.003 13.0679C175.332 13.0677 175.661 13.068 175.989 13.0687C176.367 13.0695 176.745 13.0692 177.123 13.0684C177.451 13.0678 177.778 13.0677 178.105 13.0681C178.3 13.0683 178.494 13.0683 178.688 13.0679C180.232 13.0646 180.232 13.0646 180.918 13.2272C180.989 13.2438 180.989 13.2438 181.061 13.2607C181.171 13.2879 181.278 13.3189 181.386 13.3528C181.424 13.3647 181.463 13.3766 181.502 13.3888C182.641 13.753 183.604 14.3735 184.471 15.1902C184.504 15.2205 184.537 15.2508 184.572 15.2821C185.92 16.5567 186.651 18.4091 186.761 20.2381C186.767 20.4693 186.767 20.7005 186.766 20.9319C186.767 21.0004 186.767 21.0689 186.767 21.1375C186.767 21.3243 186.767 21.5112 186.766 21.698C186.766 21.9001 186.766 22.1021 186.766 22.3042C186.766 22.6537 186.766 23.0033 186.766 23.3529C186.765 23.8583 186.765 24.3637 186.765 24.8691C186.765 25.6892 186.765 26.5093 186.764 27.3295C186.764 28.1259 186.764 28.9223 186.763 29.7187C186.763 29.7678 186.763 29.8169 186.763 29.8676C186.763 30.1141 186.763 30.3606 186.763 30.6071C186.763 32.6504 186.762 34.6937 186.761 36.737C185.434 36.737 184.108 36.737 182.741 36.737C182.74 36.2597 182.739 35.7825 182.738 35.2908C182.735 33.7619 182.732 32.233 182.728 30.7042C182.728 30.4665 182.727 30.2288 182.726 29.9911C182.726 29.9201 182.726 29.9201 182.726 29.8477C182.724 29.0827 182.723 28.3177 182.721 27.5526C182.72 26.767 182.718 25.9813 182.716 25.1957C182.715 24.7114 182.714 24.227 182.713 23.7427C182.712 23.41 182.712 23.0774 182.71 22.7448C182.71 22.5532 182.709 22.3616 182.709 22.17C182.709 20.709 182.677 19.2635 181.594 18.1539C180.777 17.359 179.716 17.0536 178.602 17.0523C178.555 17.052 178.507 17.0518 178.458 17.0516C178.302 17.0509 178.146 17.0506 177.99 17.0503C177.909 17.0501 177.909 17.0501 177.826 17.0499C177.541 17.0492 177.255 17.0488 176.969 17.0486C176.677 17.0483 176.385 17.0472 176.093 17.0459C175.865 17.045 175.638 17.0447 175.411 17.0447C175.303 17.0445 175.196 17.0442 175.088 17.0435C172.733 17.0309 170.635 17.7144 168.927 19.3737C168.361 19.9431 167.918 20.6019 167.551 21.3131C167.536 21.342 167.521 21.3709 167.506 21.4006C166.954 22.4858 166.699 23.6463 166.698 24.8594C166.698 24.8915 166.698 24.9236 166.698 24.9567C166.699 25.483 166.733 25.9869 166.85 26.5011C166.858 26.5369 166.866 26.5727 166.874 26.6096C167.314 28.597 168.554 30.3263 170.254 31.4343C171.407 32.1592 172.758 32.6279 174.127 32.632C174.171 32.6323 174.215 32.6327 174.26 32.633C174.354 32.6336 174.449 32.6342 174.543 32.6347C174.693 32.6354 174.843 32.6365 174.993 32.6377C175.419 32.641 175.846 32.6438 176.272 32.6462C176.533 32.6477 176.795 32.6496 177.056 32.6518C177.155 32.6526 177.254 32.6531 177.353 32.6535C178.483 32.6582 179.485 32.7721 180.346 33.5879C181.042 34.3237 181.35 35.3393 181.341 36.3358C181.341 36.3701 181.341 36.4044 181.341 36.4397C181.34 36.5232 181.34 36.6067 181.339 36.6902C180.255 36.6935 179.17 36.696 178.086 36.6975C177.582 36.6982 177.078 36.6992 176.575 36.7008C176.135 36.7022 175.696 36.7031 175.256 36.7034C175.024 36.7036 174.792 36.704 174.56 36.705C172.68 36.7131 172.68 36.7131 171.804 36.55C171.773 36.5443 171.741 36.5386 171.709 36.5327C171.537 36.5014 171.367 36.4653 171.197 36.4244C171.147 36.4125 171.096 36.4006 171.045 36.3884C169.215 35.9387 167.553 35.0448 166.149 33.7924C166.111 33.7593 166.111 33.7593 166.073 33.7255C164.582 32.4006 163.462 30.6847 162.83 28.7913C162.811 28.735 162.811 28.735 162.792 28.6775C162.637 28.2138 162.519 27.7453 162.421 27.2664C162.412 27.2214 162.403 27.1763 162.393 27.1299C162.248 26.3822 162.205 25.6401 162.208 24.8798C162.208 24.8153 162.208 24.8153 162.208 24.7495C162.211 24.0929 162.239 23.455 162.363 22.8087C162.37 22.7674 162.378 22.7261 162.385 22.6835C162.606 21.444 163.041 20.2748 163.625 19.1631C163.642 19.1296 163.66 19.0962 163.678 19.0617C165.056 16.4551 167.55 14.4827 170.338 13.5865C171.686 13.1734 173.013 13.0647 174.414 13.0681Z" fill="#0FBFB4"/>
<path d="M136.754 13.0794C136.825 13.0792 136.895 13.079 136.965 13.0787C137.154 13.0781 137.344 13.0778 137.533 13.0776C137.652 13.0775 137.77 13.0773 137.889 13.0771C138.262 13.0764 138.635 13.076 139.008 13.0758C139.436 13.0756 139.864 13.0748 140.292 13.0734C140.624 13.0724 140.956 13.0719 141.289 13.0719C141.486 13.0718 141.684 13.0716 141.882 13.0707C142.068 13.0699 142.255 13.0698 142.441 13.0703C142.509 13.0703 142.577 13.0701 142.644 13.0696C144.555 13.0572 146.34 13.9177 147.687 15.237C147.744 15.2901 147.744 15.2901 147.801 15.3443C148.769 16.27 149.397 17.5459 149.732 18.83C149.741 18.8647 149.75 18.8993 149.76 18.935C149.979 19.8215 149.944 20.7392 149.941 21.645C149.941 21.848 149.941 22.051 149.941 22.254C149.941 22.6048 149.941 22.9556 149.94 23.3064C149.94 23.8135 149.939 24.3207 149.939 24.8279C149.939 25.6509 149.938 26.474 149.937 27.2971C149.937 28.0961 149.936 28.8951 149.936 29.6941C149.935 29.7682 149.935 29.7681 149.935 29.8437C149.935 30.0912 149.935 30.3388 149.935 30.5863C149.934 32.6365 149.932 34.6867 149.93 36.737C148.604 36.737 147.277 36.737 145.911 36.737C145.91 36.2533 145.909 35.7697 145.908 35.2714C145.905 33.7228 145.902 32.1742 145.898 30.6255C145.897 30.3849 145.897 30.1442 145.896 29.9035C145.896 29.8317 145.896 29.8317 145.896 29.7583C145.894 28.9832 145.892 28.2081 145.891 27.433C145.889 26.6373 145.888 25.8416 145.885 25.0458C145.884 24.5551 145.883 24.0644 145.882 23.5736C145.882 23.2368 145.881 22.9 145.88 22.5632C145.879 22.369 145.879 22.1749 145.879 21.9808C145.879 21.8026 145.878 21.6245 145.877 21.4463C145.877 21.3522 145.877 21.2581 145.877 21.164C145.871 20.0433 145.577 19.01 144.789 18.1815C143.749 17.176 142.513 17.0446 141.127 17.0474C141.016 17.0473 140.906 17.0472 140.796 17.0471C140.566 17.047 140.336 17.0472 140.105 17.0476C139.813 17.0481 139.52 17.0478 139.227 17.0473C139 17.0469 138.772 17.047 138.545 17.0473C138.437 17.0473 138.329 17.0473 138.221 17.047C137.435 17.0458 136.655 17.063 135.888 17.2555C135.827 17.2706 135.827 17.2706 135.765 17.2861C134.555 17.5972 133.423 18.1634 132.507 19.0199C132.415 19.1058 132.32 19.1854 132.222 19.2653C131.008 20.3301 130.275 21.9517 129.973 23.5098C129.962 23.5618 129.952 23.6138 129.941 23.6673C129.619 25.5843 130.095 27.6769 131.2 29.2748C131.301 29.4129 131.407 29.5467 131.515 29.6793C131.536 29.7046 131.556 29.7298 131.577 29.7558C132.638 31.0523 134.031 31.9702 135.655 32.4019C135.698 32.4134 135.741 32.4249 135.785 32.4368C136.439 32.6032 137.07 32.6379 137.741 32.6396C137.89 32.64 138.038 32.641 138.187 32.6421C138.502 32.6443 138.818 32.6458 139.134 32.6473C139.5 32.649 139.866 32.6509 140.232 32.6536C140.378 32.6546 140.523 32.655 140.668 32.6553C141.777 32.6613 142.705 32.8211 143.542 33.6102C144.014 34.1211 144.284 34.7396 144.43 35.4137C144.438 35.4494 144.446 35.4851 144.454 35.5219C144.506 35.7859 144.513 36.0415 144.511 36.3093C144.511 36.346 144.51 36.3828 144.51 36.4206C144.51 36.5105 144.509 36.6003 144.509 36.6902C143.431 36.6935 142.354 36.696 141.276 36.6975C140.776 36.6982 140.275 36.6992 139.775 36.7008C139.338 36.7022 138.901 36.7031 138.465 36.7034C138.234 36.7036 138.003 36.704 137.772 36.705C136.63 36.71 135.505 36.7107 134.39 36.4244C134.342 36.4123 134.294 36.4003 134.244 36.3879C132.944 36.0519 131.69 35.5398 130.58 34.7739C130.539 34.7461 130.539 34.7461 130.497 34.7178C129.696 34.176 128.904 33.5136 128.29 32.7641C128.256 32.7247 128.222 32.6853 128.187 32.6447C126.343 30.4949 125.365 27.7293 125.378 24.9061C125.378 24.8667 125.378 24.8273 125.378 24.7867C125.38 24.1194 125.417 23.4671 125.533 22.8087C125.54 22.7657 125.547 22.7227 125.555 22.6785C125.931 20.5359 126.932 18.4759 128.422 16.8885C128.511 16.7931 128.595 16.6955 128.679 16.5953C130.631 14.36 133.829 13.0816 136.754 13.0794Z" fill="#0FBFB4"/>
<path d="M14.0495 13.0741C14.1192 13.0739 14.1889 13.0737 14.2585 13.0734C14.4451 13.0728 14.6317 13.0727 14.8183 13.0729C14.9751 13.0729 15.132 13.0727 15.2889 13.0724C15.6596 13.0719 16.0303 13.0719 16.4009 13.0722C16.7809 13.0725 17.1608 13.0719 17.5408 13.0709C17.8693 13.0701 18.1979 13.0698 18.5265 13.07C18.7217 13.07 18.9169 13.0699 19.1121 13.0693C20.667 13.0645 20.667 13.0645 21.3511 13.2272C21.3982 13.2382 21.4453 13.2493 21.4939 13.2607C21.6035 13.2879 21.7107 13.3189 21.8185 13.3528C21.857 13.3647 21.8954 13.3766 21.9351 13.3889C23.874 14.0099 25.4522 15.4253 26.3899 17.2184C26.9084 18.2484 27.1548 19.3559 27.1524 20.5047C27.1524 20.5748 27.1524 20.6449 27.1525 20.715C27.1526 20.9071 27.1524 21.0991 27.1522 21.2912C27.152 21.4986 27.152 21.7059 27.1521 21.9132C27.1521 22.2723 27.1519 22.6313 27.1517 22.9904C27.1513 23.5095 27.1512 24.0286 27.1511 24.5477C27.151 25.3899 27.1507 26.2322 27.1503 27.0744C27.1498 27.8925 27.1495 28.7106 27.1493 29.5287C27.1493 29.5791 27.1493 29.6296 27.1493 29.6815C27.1492 29.9346 27.1491 30.1876 27.1491 30.4407C27.1486 32.5394 27.1477 34.6382 27.1467 36.737C25.8203 36.737 24.4938 36.737 23.1272 36.737C23.1267 36.2456 23.1263 35.7542 23.1258 35.2479C23.1243 33.6738 23.1219 32.0996 23.1188 30.5255C23.1184 30.2808 23.1179 30.0361 23.1175 29.7914C23.1174 29.7427 23.1173 29.694 23.1172 29.6438C23.1157 28.8561 23.1149 28.0684 23.1144 27.2807C23.1138 26.4718 23.1125 25.6629 23.1106 24.854C23.1094 24.3553 23.1088 23.8566 23.1089 23.3579C23.1089 23.0155 23.1082 22.673 23.107 22.3306C23.1063 22.1333 23.1059 21.936 23.1063 21.7387C23.1291 20.4205 23.1291 20.4205 22.7124 19.1864C22.696 19.1556 22.6796 19.1247 22.6628 19.093C22.6162 19.0066 22.5683 18.9211 22.5196 18.8359C22.4857 18.7754 22.4857 18.7754 22.4511 18.7137C21.9582 17.9095 21.0952 17.3826 20.1943 17.1649C19.8041 17.0789 19.4288 17.0528 19.0307 17.053C18.9823 17.0528 18.9338 17.0527 18.8839 17.0525C18.7243 17.0521 18.5648 17.052 18.4052 17.0519C18.2934 17.0518 18.1817 17.0516 18.0699 17.0515C17.8356 17.0512 17.6013 17.0511 17.3671 17.0511C17.0688 17.0511 16.7706 17.0505 16.4723 17.0497C16.2413 17.0492 16.0103 17.0491 15.7793 17.0491C15.6694 17.049 15.5596 17.0488 15.4498 17.0485C14.6977 17.0462 13.9576 17.0629 13.2214 17.235C13.1871 17.243 13.1528 17.2509 13.1174 17.259C12.4401 17.4213 11.8201 17.6628 11.2087 17.9946C11.166 18.0171 11.166 18.0171 11.1225 18.0402C10.4669 18.3884 9.91914 18.8379 9.38586 19.35C9.34692 19.3872 9.34692 19.3872 9.30719 19.4251C9.1063 19.6208 8.93003 19.8277 8.76072 20.0511C8.73447 20.0857 8.70822 20.1203 8.68117 20.156C7.73827 21.4184 7.1274 22.9989 7.09564 24.5848C7.09383 24.6264 7.09202 24.668 7.09016 24.7109C7.04062 26.6842 7.77248 28.6819 9.131 30.118C9.17812 30.1671 9.22537 30.2161 9.27275 30.2649C9.33342 30.3278 9.39293 30.3918 9.45231 30.4558C9.98309 31.0142 10.6203 31.4324 11.3022 31.7826C11.3335 31.799 11.3649 31.8154 11.3972 31.8322C12.3652 32.3327 13.4647 32.63 14.5568 32.6313C14.6003 32.6315 14.6437 32.6318 14.6885 32.632C14.7823 32.6325 14.8762 32.6329 14.97 32.6332C15.1193 32.6338 15.2686 32.6347 15.4178 32.6357C15.8421 32.6386 16.2663 32.6411 16.6906 32.6427C16.9507 32.6437 17.2109 32.6453 17.471 32.6474C17.5694 32.648 17.6677 32.6484 17.7661 32.6486C18.9086 32.6505 19.889 32.7722 20.7522 33.5937C21.4735 34.3421 21.7774 35.3868 21.7717 36.4098C21.7572 36.5034 21.7417 36.5969 21.725 36.6902C20.6466 36.6935 19.5683 36.696 18.4899 36.6975C17.9891 36.6982 17.4883 36.6992 16.9875 36.7008C16.5505 36.7022 16.1135 36.7031 15.6765 36.7034C15.4455 36.7036 15.2146 36.704 14.9837 36.705C11.5649 36.7197 8.55364 35.7246 6.06738 33.325C6.02339 33.2829 5.97941 33.2409 5.9341 33.1976C5.65962 32.9299 5.41399 32.6465 5.17933 32.3435C5.16001 32.3186 5.1407 32.2938 5.12079 32.2682C3.87977 30.6603 3.05958 28.7892 2.7489 26.7815C2.74037 26.7271 2.74037 26.7271 2.73167 26.6716C2.29235 23.7749 2.9316 20.5301 4.6652 18.1348C4.68555 18.1066 4.7059 18.0783 4.72687 18.0493C5.39274 17.1304 6.14012 16.252 7.0489 15.5641C7.07408 15.5447 7.09927 15.5253 7.12521 15.5053C9.11245 13.9776 11.5319 13.0691 14.0495 13.0741Z" fill="#455665"/>
<path d="M90.3848 15.5641C90.454 15.6191 90.454 15.6191 90.5246 15.6751C90.7466 15.8532 90.9565 16.0349 91.154 16.2398C91.2342 16.3225 91.2342 16.3225 91.3663 16.4259C91.5083 16.5472 91.6244 16.6745 91.745 16.8164C91.8371 16.9236 91.9331 17.0264 92.0294 17.1299C92.5497 17.7092 92.9765 18.3565 93.3761 19.0228C93.407 19.0743 93.407 19.0743 93.4385 19.1269C94.8455 21.4984 95.3492 24.2424 95.3444 26.9685C95.3444 27.0754 95.3444 27.1823 95.3445 27.2893C95.3445 27.5776 95.3442 27.8659 95.3439 28.1542C95.3436 28.4562 95.3435 28.7583 95.3435 29.0603C95.3434 29.5666 95.3431 30.0729 95.3427 30.5792C95.3422 31.1004 95.3419 31.6215 95.3417 32.1426C95.3417 32.1749 95.3417 32.2071 95.3417 32.2402C95.3416 32.4018 95.3415 32.5634 95.3415 32.725C95.341 34.0623 95.3402 35.3996 95.3391 36.737C95.1909 36.7379 95.0428 36.7385 94.8946 36.739C94.8323 36.7394 94.8323 36.7394 94.7687 36.7398C93.6241 36.7427 92.6694 36.3757 91.8337 35.5889C90.9665 34.7001 90.7488 33.5859 90.7541 32.3827C90.7542 32.2924 90.7543 32.2023 90.7544 32.1121C90.7546 32.0162 90.7549 31.9204 90.7552 31.8245C90.7558 31.6232 90.7561 31.4218 90.7563 31.2205C90.7569 30.7563 90.7579 30.2922 90.7589 29.828C90.7599 29.4031 90.7607 28.9781 90.7612 28.5532C90.7614 28.3863 90.7617 28.2194 90.7622 28.0525C90.7704 26.6576 90.7704 26.6576 90.6331 25.2713C90.6249 25.2181 90.6167 25.165 90.6083 25.1103C90.2461 22.8712 89.1646 20.7188 87.3061 19.3577C86.5164 18.8009 85.6465 18.4264 84.7118 18.1874C84.6595 18.174 84.6595 18.174 84.606 18.1603C84.0016 18.0164 83.3993 17.9767 82.7809 17.98C82.7289 17.9801 82.7289 17.9801 82.6758 17.9803C82.12 17.9829 81.58 18.0087 81.037 18.1348C80.9978 18.1438 80.9587 18.1529 80.9184 18.1622C79.025 18.6175 77.4236 19.7958 76.4038 21.4538C76.0902 21.9788 75.8298 22.5168 75.6152 23.0891C75.6023 23.1231 75.5895 23.1571 75.5762 23.1921C75.4228 23.604 75.3058 24.0217 75.2092 24.4504C75.2003 24.489 75.1914 24.5276 75.1822 24.5674C74.9954 25.445 74.9399 26.3295 74.9407 27.2242C74.9402 27.3284 74.9398 27.4326 74.9392 27.5369C74.9379 27.8159 74.9375 28.0949 74.9372 28.3739C74.9368 28.667 74.9355 28.96 74.9344 29.2531C74.9326 29.7436 74.9313 30.2342 74.9303 30.7248C74.9293 31.2295 74.9281 31.7342 74.9264 32.2388C74.9263 32.2701 74.9262 32.3013 74.9261 32.3335C74.9256 32.4904 74.925 32.6472 74.9245 32.8041C74.9202 34.0995 74.9169 35.3948 74.9141 36.6902C73.5568 36.6902 72.1995 36.6902 70.8011 36.6902C70.8011 28.8857 70.8011 21.0812 70.8011 13.0402C71.9476 13.0402 72.8498 13.1938 73.6989 13.975C73.7382 14.01 73.7775 14.045 73.818 14.0811C74.493 14.7142 74.8318 15.544 74.9141 16.4522C75.0135 16.4626 75.0135 16.4626 75.0854 16.3819C75.1156 16.3501 75.1459 16.3184 75.177 16.2857C75.3619 16.0965 75.5544 15.9227 75.7554 15.7511C75.7975 15.7142 75.8395 15.6773 75.8829 15.6394C79.317 12.6497 84.0125 12.2296 90.3848 15.5641Z" fill="#455665"/>
<path d="M32.1946 8.31955C32.3072 8.31918 32.4198 8.3189 32.5325 8.31869C32.5642 8.31857 32.596 8.31845 32.6287 8.31833C33.605 8.31692 34.4977 8.618 35.1988 9.30966C36.2575 10.4048 36.1674 11.5324 36.1674 13.0402C37.8023 13.0402 39.4373 13.0402 41.1217 13.0402C41.1217 14.3821 41.1217 15.724 41.1217 17.1065C40.7586 17.1344 40.4081 17.1601 40.0461 17.1586C40.0036 17.1586 39.9612 17.1586 39.9174 17.1586C39.7796 17.1585 39.6418 17.1582 39.5039 17.1578C39.4073 17.1577 39.3108 17.1577 39.2142 17.1576C38.9619 17.1574 38.7097 17.157 38.4574 17.1565C38.1992 17.156 37.941 17.1558 37.6828 17.1555C37.1777 17.155 36.6725 17.1542 36.1674 17.1532C36.1691 18.7645 36.1717 20.3756 36.1757 21.9868C36.1762 22.1774 36.1766 22.368 36.1771 22.5586C36.1772 22.5965 36.1773 22.6345 36.1774 22.6736C36.1788 23.2864 36.1796 23.8992 36.1802 24.512C36.1807 25.1417 36.182 25.7714 36.184 26.4011C36.1851 26.789 36.1858 27.177 36.1857 27.565C36.1857 27.8317 36.1864 28.0984 36.1876 28.3651C36.1883 28.5185 36.1886 28.672 36.1882 28.8254C36.1858 30.0306 36.1858 30.0306 36.5793 31.1575C36.5955 31.1881 36.6118 31.2187 36.6285 31.2502C36.9385 31.8165 37.4258 32.1803 38.0369 32.3902C38.6279 32.5545 39.2023 32.585 39.8118 32.5919C39.8754 32.5928 39.939 32.5937 40.0026 32.5946C40.2364 32.5978 40.4702 32.6006 40.704 32.6034C41.4892 32.6136 41.4892 32.6136 42.2902 32.6239C42.2902 33.9812 42.2902 35.3385 42.2902 36.7369C41.2196 36.7407 41.2196 36.7407 40.7575 36.7415C40.4442 36.7421 40.1309 36.7427 39.8176 36.744C39.5645 36.745 39.3115 36.7456 39.0584 36.7458C38.9627 36.746 38.8669 36.7463 38.7711 36.7468C36.8864 36.7565 35.3311 36.3813 33.9239 35.0543C33.8928 35.0263 33.8617 34.9982 33.8297 34.9693C33.1956 34.3738 32.7356 33.5768 32.4575 32.7583C32.4469 32.7271 32.4363 32.6959 32.4254 32.6638C32.2142 31.9972 32.1744 31.3662 32.1777 30.6726C32.1776 30.5758 32.1775 30.479 32.1773 30.3822C32.177 30.1179 32.1776 29.8536 32.1783 29.5892C32.1789 29.3035 32.1787 29.0179 32.1786 28.7322C32.1785 28.2378 32.1789 27.7434 32.1797 27.249C32.1806 26.7307 32.1811 26.2125 32.1813 25.6943C32.1813 25.662 32.1813 25.6297 32.1813 25.5964C32.1813 25.4324 32.1814 25.2685 32.1814 25.1045C32.1817 23.9446 32.1827 22.7848 32.184 21.6249C32.1853 20.4985 32.1863 19.3721 32.1869 18.2456C32.1869 18.2109 32.1869 18.1761 32.1869 18.1403C32.1871 17.7913 32.1873 17.4423 32.1875 17.0932C32.1878 16.3823 32.1882 15.6714 32.1886 14.9604C32.1886 14.9278 32.1887 14.8951 32.1887 14.8614C32.19 12.6808 32.1922 10.5002 32.1946 8.31955Z" fill="#455665"/>
<path d="M154.651 4.81412C155.843 4.81412 156.792 4.95761 157.683 5.78541C158.37 6.50212 158.624 7.34287 158.639 8.30872C158.64 8.36307 158.64 8.41741 158.641 8.47341C158.645 8.65286 158.647 8.83231 158.65 9.01178C158.651 9.0747 158.652 9.13762 158.653 9.20055C158.673 10.4982 158.677 11.7957 158.676 13.0934C158.676 13.3785 158.676 13.6635 158.676 13.9485C158.676 14.5289 158.676 15.1092 158.676 15.6895C158.675 16.2617 158.675 16.8339 158.675 17.4061C158.675 17.4421 158.675 17.478 158.675 17.5151C158.675 17.6978 158.675 17.8806 158.675 18.0633C158.675 19.348 158.675 20.6327 158.674 21.9173C158.674 23.1631 158.673 24.4089 158.673 25.6547C158.673 25.6933 158.673 25.7319 158.673 25.7717C158.673 26.1594 158.673 26.5471 158.673 26.9348C158.673 27.7242 158.673 28.5136 158.673 29.3029C158.673 29.3573 158.673 29.3573 158.673 29.4128C158.672 31.823 158.671 34.2332 158.671 36.6435C157.344 36.6435 156.018 36.6435 154.651 36.6435C154.651 26.1398 154.651 15.6361 154.651 4.81412Z" fill="#0FBFB4"/>
<path d="M56.6391 13.0402C56.6391 14.3358 56.6391 15.6314 56.6391 16.9663C55.9913 17.0357 55.9913 17.0357 55.3304 17.1065C53.2899 17.526 51.5189 18.5918 50.335 20.3377C49.5196 21.5835 49.0147 23.0565 49.0133 24.5515C49.013 24.6038 49.0128 24.656 49.0126 24.7098C49.0118 24.8843 49.0114 25.0589 49.0111 25.2334C49.0106 25.3587 49.0101 25.484 49.0097 25.6093C49.0086 25.8788 49.0078 26.1483 49.0071 26.4179C49.006 26.8075 49.0047 27.1972 49.0033 27.5869C49.0011 28.2192 48.9991 28.8514 48.9972 29.4837C48.9953 30.0978 48.9934 30.7119 48.9913 31.3259C48.9912 31.3638 48.9911 31.4017 48.9909 31.4407C48.9903 31.6307 48.9896 31.8207 48.989 32.0107C48.9837 33.5861 48.9787 35.1616 48.9739 36.737C47.6166 36.737 46.2593 36.737 44.8609 36.737C44.8578 35.1194 44.8552 33.5019 44.8537 31.8843C44.8535 31.6928 44.8534 31.5012 44.8532 31.3097C44.8531 31.2715 44.8531 31.2334 44.8531 31.1941C44.8525 30.5791 44.8513 29.964 44.8501 29.349C44.8487 28.7165 44.848 28.0841 44.8477 27.4516C44.8475 27.0623 44.8469 26.6729 44.8457 26.2836C44.845 26.0155 44.8448 25.7475 44.845 25.4794C44.845 25.3254 44.8448 25.1715 44.8442 25.0175C44.84 24.0376 44.892 23.06 45.1267 22.1047C45.1385 22.0552 45.1504 22.0056 45.1626 21.9546C45.7929 19.4048 47.2603 16.9413 49.4122 15.3855C49.4887 15.33 49.5639 15.2729 49.639 15.2156C51.6748 13.6854 54.1237 13.0402 56.6391 13.0402Z" fill="#455665"/>
<path d="M61.5468 12.9935C62.7554 12.9935 63.6904 13.1079 64.5848 13.9283C64.6178 13.9575 64.6507 13.9867 64.6847 14.0168C65.2017 14.5004 65.579 15.2201 65.6247 15.9321C65.6251 15.9963 65.625 16.0606 65.6246 16.1248C65.6247 16.1607 65.6248 16.1966 65.6249 16.2335C65.6251 16.3533 65.6247 16.473 65.6243 16.5927C65.6243 16.6796 65.6244 16.7665 65.6245 16.8534C65.6247 17.0918 65.6244 17.3303 65.6239 17.5687C65.6235 17.8259 65.6236 18.0832 65.6237 18.3404C65.6238 18.786 65.6235 19.2315 65.6229 19.6771C65.6222 20.3213 65.6219 20.9655 65.6218 21.6098C65.6216 22.655 65.621 23.7002 65.6201 24.7454C65.6193 25.7607 65.6186 26.776 65.6182 27.7914C65.6182 27.8383 65.6182 27.8383 65.6182 27.8862C65.618 28.2006 65.6179 28.515 65.6178 28.8294C65.6168 31.4652 65.6151 34.1011 65.6131 36.7369C64.2712 36.7369 62.9293 36.7369 61.5468 36.7369C61.5468 28.9016 61.5468 21.0662 61.5468 12.9935Z" fill="#455665"/>
<path d="M65.0522 5.56195C65.0829 5.58406 65.1136 5.60617 65.1453 5.62895C65.5902 5.97798 65.9171 6.56439 66.0205 7.1184C66.1064 7.94273 65.9772 8.64572 65.4783 9.32791C64.9804 9.92149 64.2993 10.2239 63.537 10.2928C62.8208 10.3209 62.136 10.0569 61.5964 9.5932C61.1025 9.11314 60.8015 8.49296 60.7828 7.80278C60.7735 6.97216 60.9943 6.35618 61.5509 5.73302C62.512 4.8006 64.0022 4.79388 65.0522 5.56195Z" fill="#455665"/>
</svg>
